<svg width="159" height="122" viewBox="0 0 159 122" fill="none" xmlns="http://www.w3.org/2000/svg">
<g style="mix-blend-mode:luminosity" opacity="0.3">
<path d="M121.595 146.969C121.595 146.969 121.562 146.991 121.548 147.002C121.529 147.013 121.515 147.024 121.497 147.031C109.831 154.306 96.1452 158.641 81.4711 159H81.4162V96.1864C81.4162 93.8432 82.108 91.5439 83.433 89.6107C87.6094 83.5036 94.6299 79.4945 102.591 79.4945C94.6262 79.4945 87.6057 75.4854 83.4293 69.3746C82.108 67.4415 81.4162 65.1458 81.4162 62.8026V0H81.4711C124.465 1.04713 159 36.2397 159 79.4982C159 107.954 144.059 132.92 121.595 146.969ZM75.9111 90.4528C77.0384 92.2652 77.5948 94.3741 77.5948 96.5086V159H77.5289C71.2405 158.846 65.1351 157.964 59.2933 156.43V103.04L59.2384 103.095L24.9743 137.369L24.934 137.329C20.4867 133.136 16.5263 128.432 13.1442 123.313L46.3541 90.094H0.699118C0.23792 86.6268 0 83.0899 0 79.4982C0 76.895 0.12445 74.3247 0.369691 71.7874H46.3541L12.0168 37.4406C15.2745 32.2196 19.1251 27.405 23.4662 23.0846L23.5065 23.0443L59.2384 58.7861L59.2933 58.841V2.57024C65.1351 1.03615 71.2405 0.153778 77.5289 0H77.5948V62.4877C77.5948 64.6222 77.0384 66.7312 75.9111 68.5435C71.8518 75.068 64.641 79.4286 56.4053 79.4945C64.641 79.5677 71.8518 83.9284 75.9111 90.4528Z" fill="#008751"/>
</g>
</svg>
