<svg width="11" height="13" viewBox="0 0 11 13" fill="none" xmlns="http://www.w3.org/2000/svg">
<path d="M5.5 0C2.81225 0 0.625 2.20242 0.625 4.91021C0.625 8.75767 5.04175 12.7303 5.22971 12.8971C5.30717 12.9659 5.40358 13 5.5 13C5.59642 13 5.69283 12.9659 5.77029 12.8976C5.95825 12.7303 10.375 8.75767 10.375 4.91021C10.375 2.20242 8.18775 0 5.5 0ZM5.5 7.58333C4.00663 7.58333 2.79167 6.36838 2.79167 4.875C2.79167 3.38163 4.00663 2.16667 5.5 2.16667C6.99338 2.16667 8.20833 3.38163 8.20833 4.875C8.20833 6.36838 6.99338 7.58333 5.5 7.58333Z" fill="#008751"/>
</svg>
