<svg width="32" height="32" viewBox="0 0 32 32" fill="none" xmlns="http://www.w3.org/2000/svg">
<path d="M16.0008 31.1998C24.3955 31.1998 31.2008 24.3945 31.2008 15.9998C31.2008 7.60508 24.3955 0.799805 16.0008 0.799805C7.60605 0.799805 0.800781 7.60508 0.800781 15.9998C0.800781 24.3945 7.60605 31.1998 16.0008 31.1998Z" fill="url(#paint0_linear_3061_11061)"/>
<path d="M21.6612 20.6483L22.3364 16.3581H18.1125V13.5753C18.1125 12.4013 18.7015 11.2563 20.5934 11.2563H22.5149V7.60384C22.5149 7.60384 20.7718 7.31396 19.1061 7.31396C15.6258 7.31396 13.3533 9.36916 13.3533 13.0882V16.3581H9.48633V20.6483H13.3533V31.02C14.1296 31.1389 14.9238 31.1997 15.7329 31.1997C16.542 31.1997 17.3363 31.1389 18.1125 31.02V20.6483H21.6612Z" fill="white"/>
<defs>
<linearGradient id="paint0_linear_3061_11061" x1="16.0008" y1="0.799805" x2="16.0008" y2="31.1097" gradientUnits="userSpaceOnUse">
<stop stop-color="#18ACFE"/>
<stop offset="1" stop-color="#0163E0"/>
</linearGradient>
</defs>
</svg>
