<svg width="32" height="32" viewBox="0 0 32 32" fill="none" xmlns="http://www.w3.org/2000/svg">
<path d="M25.1429 0H6.85714C3.07005 0 0 3.07005 0 6.85714V25.1429C0 28.93 3.07005 32 6.85714 32H25.1429C28.93 32 32 28.93 32 25.1429V6.85714C32 3.07005 28.93 0 25.1429 0Z" fill="url(#paint0_radial_3061_11054)"/>
<path d="M25.1429 0H6.85714C3.07005 0 0 3.07005 0 6.85714V25.1429C0 28.93 3.07005 32 6.85714 32H25.1429C28.93 32 32 28.93 32 25.1429V6.85714C32 3.07005 28.93 0 25.1429 0Z" fill="url(#paint1_radial_3061_11054)"/>
<path d="M25.1429 0H6.85714C3.07005 0 0 3.07005 0 6.85714V25.1429C0 28.93 3.07005 32 6.85714 32H25.1429C28.93 32 32 28.93 32 25.1429V6.85714C32 3.07005 28.93 0 25.1429 0Z" fill="url(#paint2_radial_3061_11054)"/>
<path d="M23.9989 9.71429C23.9989 10.661 23.2313 11.4286 22.2846 11.4286C21.3379 11.4286 20.5703 10.661 20.5703 9.71429C20.5703 8.76751 21.3379 8 22.2846 8C23.2313 8 23.9989 8.76751 23.9989 9.71429Z" fill="white"/>
<path fill-rule="evenodd" clip-rule="evenodd" d="M15.9994 21.7147C19.1553 21.7147 21.7137 19.1563 21.7137 16.0004C21.7137 12.8445 19.1553 10.2861 15.9994 10.2861C12.8436 10.2861 10.2852 12.8445 10.2852 16.0004C10.2852 19.1563 12.8436 21.7147 15.9994 21.7147ZM15.9994 19.429C17.893 19.429 19.428 17.894 19.428 16.0004C19.428 14.1068 17.893 12.5718 15.9994 12.5718C14.1058 12.5718 12.5709 14.1068 12.5709 16.0004C12.5709 17.894 14.1058 19.429 15.9994 19.429Z" fill="white"/>
<path fill-rule="evenodd" clip-rule="evenodd" d="M4.57031 15.5432C4.57031 11.7029 4.57031 9.78263 5.3177 8.31585C5.97511 7.02558 7.02412 5.97658 8.31438 5.31916C9.78117 4.57178 11.7014 4.57178 15.5417 4.57178H16.456C20.2964 4.57178 22.2166 4.57178 23.6833 5.31916C24.9736 5.97658 26.0227 7.02558 26.68 8.31585C27.4275 9.78263 27.4275 11.7029 27.4275 15.5432V16.4575C27.4275 20.2978 27.4275 22.2181 26.68 23.6848C26.0227 24.9751 24.9736 26.0241 23.6833 26.6815C22.2166 27.4289 20.2964 27.4289 16.456 27.4289H15.5417C11.7014 27.4289 9.78117 27.4289 8.31438 26.6815C7.02412 26.0241 5.97511 24.9751 5.3177 23.6848C4.57031 22.2181 4.57031 20.2978 4.57031 16.4575V15.5432ZM15.5417 6.85749H16.456C18.414 6.85749 19.7448 6.85927 20.7736 6.94332C21.7758 7.02519 22.2883 7.17359 22.6457 7.35574C23.5059 7.79403 24.2052 8.49337 24.6435 9.35349C24.8256 9.71098 24.9741 10.2234 25.0559 11.2256C25.1399 12.2544 25.1417 13.5853 25.1417 15.5432V16.4575C25.1417 18.4154 25.1399 19.7463 25.0559 20.7751C24.9741 21.7773 24.8256 22.2897 24.6435 22.6472C24.2052 23.5073 23.5059 24.2066 22.6457 24.6449C22.2883 24.8271 21.7758 24.9755 20.7736 25.0574C19.7448 25.1414 18.414 25.1432 16.456 25.1432H15.5417C13.5838 25.1432 12.2529 25.1414 11.2241 25.0574C10.222 24.9755 9.70951 24.8271 9.35203 24.6449C8.4919 24.2066 7.79256 23.5073 7.35428 22.6472C7.17213 22.2897 7.02373 21.7773 6.94186 20.7751C6.85781 19.7463 6.85603 18.4154 6.85603 16.4575V15.5432C6.85603 13.5853 6.85781 12.2544 6.94186 11.2256C7.02373 10.2234 7.17213 9.71098 7.35428 9.35349C7.79256 8.49337 8.4919 7.79403 9.35203 7.35574C9.70951 7.17359 10.222 7.02519 11.2241 6.94332C12.2529 6.85927 13.5838 6.85749 15.5417 6.85749Z" fill="white"/>
<defs>
<radialGradient id="paint0_radial_3061_11054" cx="0" cy="0" r="1" gradientUnits="userSpaceOnUse" gradientTransform="translate(11.4286 24) rotate(-55.3758) scale(29.1653)">
<stop stop-color="#B13589"/>
<stop offset="0.79309" stop-color="#C62F94"/>
<stop offset="1" stop-color="#8A3AC8"/>
</radialGradient>
<radialGradient id="paint1_radial_3061_11054" cx="0" cy="0" r="1" gradientUnits="userSpaceOnUse" gradientTransform="translate(10.2857 33.1429) rotate(-65.1363) scale(25.8219)">
<stop stop-color="#E0E8B7"/>
<stop offset="0.444662" stop-color="#FB8A2E"/>
<stop offset="0.71474" stop-color="#E2425C"/>
<stop offset="1" stop-color="#E2425C" stop-opacity="0"/>
</radialGradient>
<radialGradient id="paint2_radial_3061_11054" cx="0" cy="0" r="1" gradientUnits="userSpaceOnUse" gradientTransform="translate(-1.71429 1.14286) rotate(-8.1301) scale(44.4467 9.5067)">
<stop offset="0.156701" stop-color="#406ADC"/>
<stop offset="0.467799" stop-color="#6A45BE"/>
<stop offset="1" stop-color="#6A45BE" stop-opacity="0"/>
</radialGradient>
</defs>
</svg>
