<svg width="32" height="32" viewBox="0 0 32 32" fill="none" xmlns="http://www.w3.org/2000/svg">
<path d="M32 16C32 7.16344 24.8366 0 16 0C7.16344 0 0 7.16344 0 16C0 24.8366 7.16344 32 16 32C24.8366 32 32 24.8366 32 16Z" fill="#1275B1"/>
<path d="M12.1355 8.7918C12.1355 9.85985 11.2097 10.7257 10.0678 10.7257C8.92576 10.7257 8 9.85985 8 8.7918C8 7.72374 8.92576 6.85791 10.0678 6.85791C11.2097 6.85791 12.1355 7.72374 12.1355 8.7918Z" fill="white"/>
<path d="M8.28125 12.1455H11.8159V22.8563H8.28125V12.1455Z" fill="white"/>
<path d="M17.5073 12.1445H13.9727V22.8553H17.5073C17.5073 22.8553 17.5073 19.4834 17.5073 17.3752C17.5073 16.1097 17.9394 14.8387 19.6634 14.8387C21.6117 14.8387 21.6001 16.4947 21.5909 17.7777C21.5791 19.4546 21.6074 21.166 21.6074 22.8553H25.142V17.2024C25.1121 13.5929 24.1715 11.9297 21.0772 11.9297C19.2396 11.9297 18.1005 12.764 17.5073 13.5187V12.1445Z" fill="white"/>
</svg>
