<svg width="96" height="75" viewBox="0 0 96 75" fill="none" xmlns="http://www.w3.org/2000/svg">
<path d="M49.8 56.7C49.8 46.3 53.7 36 61.5 25.8C69.3 15.4 80.1 6.8 93.9 0L95.4 4.2C86 9.8 78.5 16.1 72.9 23.1C67.3 29.9 64.2 36.7 63.6 43.5C66 41.3 68.5 39.5 71.1 38.1C73.9 36.7 76.6 36 79.2 36C82 36 84.1 37 85.5 39C86.9 40.8 87.6 43.3 87.6 46.5C87.6 50.7 86.4 55 84 59.4C81.6 63.6 78.5 67.2 74.7 70.2C71.1 73 67.2 74.4 63 74.4C58.4 74.4 55 72.8 52.8 69.6C50.8 66.4 49.8 62.1 49.8 56.7ZM0 56.7C0 46.3 3.9 36 11.7 25.8C19.5 15.4 30.3 6.8 44.1 0L45.6 4.2C36.2 9.8 28.7 16.1 23.1 23.1C17.5 29.9 14.4 36.7 13.8 43.5C16.2 41.3 18.7 39.5 21.3 38.1C24.1 36.7 26.8 36 29.4 36C32.2 36 34.3 37 35.7 39C37.1 40.8 37.8 43.3 37.8 46.5C37.8 50.7 36.6 55 34.2 59.4C31.8 63.6 28.7 67.2 24.9 70.2C21.3 73 17.4 74.4 13.2 74.4C8.6 74.4 5.2 72.8 3 69.6C1 66.4 0 62.1 0 56.7Z" fill="#B0B0B0" fill-opacity="0.3"/>
</svg>
