<svg width="96" height="75" viewBox="0 0 96 75" fill="none" xmlns="http://www.w3.org/2000/svg">
<path d="M45.6004 17.6999C45.6004 28.0999 41.7004 38.3999 33.9004 48.5999C26.1004 58.9999 15.3004 67.5999 1.50039 74.3999L0.00038147 70.1999C9.40038 64.5999 16.9004 58.2999 22.5004 51.2999C28.1004 44.4999 31.2004 37.6999 31.8004 30.8999C29.4004 33.0999 26.9004 34.8999 24.3004 36.2999C21.5004 37.6999 18.8004 38.3999 16.2004 38.3999C13.4004 38.3999 11.3004 37.3999 9.90039 35.3999C8.50039 33.5999 7.80039 31.0999 7.80039 27.8999C7.80039 23.6999 9.00039 19.3999 11.4004 14.9999C13.8004 10.7999 16.9004 7.19991 20.7004 4.19991C24.3004 1.3999 28.2004 -9.91821e-05 32.4004 -9.91821e-05C37.0004 -9.91821e-05 40.4004 1.5999 42.6004 4.7999C44.6004 7.99989 45.6004 12.2999 45.6004 17.6999ZM95.4004 17.6999C95.4004 28.0999 91.5004 38.3999 83.7004 48.5999C75.9004 58.9999 65.1004 67.5999 51.3004 74.3999L49.8004 70.1999C59.2004 64.5999 66.7004 58.2999 72.3004 51.2999C77.9004 44.4999 81.0004 37.6999 81.6004 30.8999C79.2004 33.0999 76.7004 34.8999 74.1004 36.2999C71.3004 37.6999 68.6004 38.3999 66.0004 38.3999C63.2004 38.3999 61.1004 37.3999 59.7004 35.3999C58.3004 33.5999 57.6004 31.0999 57.6004 27.8999C57.6004 23.6999 58.8004 19.3999 61.2004 14.9999C63.6004 10.7999 66.7004 7.19991 70.5004 4.19991C74.1004 1.3999 78.0004 -9.91821e-05 82.2004 -9.91821e-05C86.8004 -9.91821e-05 90.2004 1.5999 92.4004 4.7999C94.4004 7.99989 95.4004 12.2999 95.4004 17.6999Z" fill="#B0B0B0" fill-opacity="0.3"/>
</svg>
