<svg width="46" height="35" viewBox="0 0 46 35" fill="none" xmlns="http://www.w3.org/2000/svg">
<path d="M45.0191 19.3015C45.5034 18.8171 45.7755 18.1601 45.7755 17.4751C45.7755 16.7901 45.5034 16.1331 45.0191 15.6487L30.4052 1.03476C30.1669 0.788021 29.8818 0.591216 29.5667 0.455826C29.2515 0.320437 28.9125 0.249172 28.5695 0.246191C28.2265 0.243211 27.8863 0.308574 27.5688 0.438466C27.2513 0.568359 26.9629 0.760179 26.7203 1.00274C26.4778 1.24529 26.286 1.53372 26.1561 1.85121C26.0262 2.16869 25.9608 2.50886 25.9638 2.85188C25.9668 3.19489 26.038 3.53387 26.1734 3.84905C26.3088 4.16423 26.5056 4.44928 26.7524 4.68759L36.9565 14.8918L2.74544 14.8918C2.0603 14.8918 1.40322 15.1639 0.918748 15.6484C0.434279 16.1329 0.162109 16.7899 0.162109 17.4751C0.162109 18.1602 0.434279 18.8173 0.918748 19.3018C1.40322 19.7862 2.0603 20.0584 2.74544 20.0584L36.9565 20.0584L26.7524 30.2626C26.2818 30.7498 26.0214 31.4024 26.0273 32.0797C26.0332 32.757 26.3049 33.405 26.7838 33.884C27.2628 34.3629 27.9107 34.6346 28.5881 34.6405C29.2654 34.6464 29.918 34.386 30.4052 33.9154L45.0191 19.3015Z" fill="white"/>
</svg>
