<svg width="17" height="22" viewBox="0 0 17 22" fill="none" xmlns="http://www.w3.org/2000/svg">
<path d="M7.80929 21.6352C8.04295 21.8688 8.35981 22 8.6902 22C9.02059 22 9.33745 21.8688 9.57111 21.6352L16.6196 14.5867C16.7386 14.4717 16.8335 14.3343 16.8988 14.1822C16.9641 14.0302 16.9985 13.8667 17 13.7013C17.0014 13.5359 16.9699 13.3718 16.9072 13.2187C16.8446 13.0655 16.752 12.9264 16.6351 12.8094C16.5181 12.6924 16.379 12.5999 16.2258 12.5373C16.0727 12.4746 15.9086 12.4431 15.7432 12.4445C15.5778 12.446 15.4143 12.4803 15.2622 12.5456C15.1102 12.6109 14.9727 12.7059 14.8578 12.8249L9.93618 17.7465L9.93618 1.24598C9.93618 0.915525 9.80491 0.598605 9.57124 0.364938C9.33757 0.131272 9.02066 -3.93975e-09 8.6902 0C8.35975 3.94151e-09 8.04283 0.131272 7.80916 0.364938C7.57549 0.598605 7.44422 0.915525 7.44422 1.24598L7.44422 17.7465L2.5226 12.8249C2.2876 12.5979 1.97287 12.4723 1.64618 12.4752C1.31948 12.478 1.00698 12.609 0.775961 12.84C0.544947 13.0711 0.41391 13.3836 0.41107 13.7103C0.408232 14.037 0.533817 14.3517 0.760782 14.5867L7.80929 21.6352Z" fill="white"/>
</svg>
