<svg width="40" height="40" viewBox="0 0 40 40" fill="none" xmlns="http://www.w3.org/2000/svg">
<path d="M20 39C30.4934 39 39 30.4934 39 20C39 9.50659 30.4934 1 20 1C9.50659 1 1 9.50659 1 20C1 30.4934 9.50659 39 20 39Z" fill="url(#paint0_linear_910_2286)"/>
<path d="M27.076 25.8105L27.92 20.4477H22.6402V16.9692C22.6402 15.5017 23.3764 14.0705 25.7413 14.0705H28.1431V9.50492C28.1431 9.50492 25.9642 9.14258 23.8821 9.14258C19.5318 9.14258 16.6912 11.7116 16.6912 16.3604V20.4477H11.8574V25.8105H16.6912V38.7751C17.6615 38.9237 18.6543 38.9997 19.6656 38.9997C20.677 38.9997 21.6698 38.9237 22.6402 38.7751V25.8105H27.076Z" fill="white"/>
<defs>
<linearGradient id="paint0_linear_910_2286" x1="20" y1="1" x2="20" y2="38.8874" gradientUnits="userSpaceOnUse">
<stop stop-color="#18ACFE"/>
<stop offset="1" stop-color="#0163E0"/>
</linearGradient>
</defs>
</svg>
