<svg width="32" height="32" viewBox="0 0 32 32" fill="none" xmlns="http://www.w3.org/2000/svg">
<path d="M25.1926 21.5251C25.1976 21.616 25.1807 21.7027 25.1468 21.7796C25.1162 21.8283 25.0851 21.876 25.0535 21.9243L25.0503 21.9284C24.9492 22.0397 24.8033 22.1092 24.6413 22.1092H12.4812C12.3289 22.1092 12.1908 22.1714 12.0906 22.271C11.9904 22.3712 11.9286 22.5103 11.9291 22.6633C11.93 22.9702 12.1903 23.2136 12.4972 23.2136C13.9529 23.2136 20.7214 23.2136 22.7109 23.2136C23.0155 23.2136 23.2621 23.4607 23.2621 23.7652V23.7662C23.2621 23.9159 23.2026 24.0518 23.1057 24.151C23.0819 24.1718 23.0581 24.1922 23.0343 24.2126C22.9433 24.2785 22.8316 24.3174 22.7109 24.3174H18.8216C18.8216 24.3174 18.8225 24.3174 18.8234 24.3174C18.6743 24.3193 18.5393 24.3809 18.441 24.4787C18.3408 24.5789 18.2795 24.717 18.2795 24.8691C18.2795 25.1714 18.5224 25.4166 18.8234 25.4208C18.8225 25.4208 18.8225 25.4208 18.8216 25.4208H19.5357C19.9666 25.4208 20.0718 26.0216 19.666 26.1672C19.2699 26.3095 18.8628 26.4291 18.4465 26.5246C17.6651 26.7036 16.8518 26.7986 16.0165 26.7986C15.1811 26.7986 14.3678 26.7036 13.5865 26.5246C13.091 26.4111 12.6089 26.2632 12.1423 26.0842C11.7868 25.9479 11.8829 25.4208 12.2635 25.4208H16.3449C16.3449 25.4208 16.3449 25.4208 16.344 25.4208C16.4927 25.4185 16.6272 25.3573 16.7251 25.2595C16.8252 25.1593 16.8865 25.0216 16.8865 24.8691C16.8865 24.5678 16.6445 24.3225 16.344 24.3174C16.344 24.3174 16.344 24.3174 16.3431 24.3174C16.3403 24.3174 16.3376 24.3174 16.3349 24.3174H9.32387C9.19487 24.3174 9.07639 24.2734 8.98261 24.1992C8.97072 24.1894 8.95928 24.1793 8.94739 24.1691C8.83988 24.0689 8.77218 23.9252 8.77218 23.7662V23.7652C8.77218 23.4607 9.01921 23.2136 9.32387 23.2136H9.9849C10.1372 23.2136 10.2754 23.1519 10.3756 23.0518C10.4757 22.9516 10.537 22.8139 10.537 22.6614C10.537 22.3568 10.29 22.1097 9.9849 22.1097H7.42131C7.11847 22.1097 6.85315 21.8621 6.85269 21.5594C6.85269 21.4069 6.91445 21.2678 7.01417 21.1677C7.11436 21.068 7.25251 21.0059 7.40484 21.0059H24.6253C24.9204 21.0059 25.1761 21.2307 25.1935 21.5251H25.1926Z" fill="black"/>
<path d="M26.8202 15.9935C26.8202 17.3732 26.5613 18.6926 26.0887 19.9054H21.0151L20.6619 18.9439L25.2557 14.0848L25.2932 14.0408H18.8582L16.022 6.22203L13.1857 14.0408H6.75068L6.7882 14.0848L11.382 18.9439L11.0288 19.9054H5.95517C5.48307 18.6926 5.22369 17.3732 5.22369 15.9935C5.22369 15.5614 5.24931 15.1358 5.29872 14.7167C5.36962 14.1122 5.49085 13.5234 5.65782 12.9541C5.66423 12.9318 5.67109 12.9096 5.67749 12.8873C5.67841 12.8859 5.67886 12.8841 5.67932 12.8822C5.67978 12.8804 5.68024 12.8785 5.68069 12.8766C7.01555 8.44549 11.1235 5.21554 15.989 5.20117H16.0531C20.9186 5.21554 25.0265 8.44549 26.3614 12.8766C26.3623 12.8785 26.3623 12.8804 26.3628 12.8822C26.3637 12.8841 26.3641 12.8859 26.3646 12.8873C26.371 12.9096 26.3783 12.9318 26.3843 12.9541C26.5512 13.5234 26.6725 14.1126 26.7434 14.7167C26.7928 15.1353 26.8184 15.5614 26.8184 15.9935H26.8202Z" fill="black"/>
<path d="M26.3632 12.877C26.3632 12.877 26.3641 12.8807 26.3646 12.8825C26.3655 12.8844 26.366 12.8862 26.3664 12.8876C26.3728 12.9099 26.3801 12.9321 26.3861 12.9544C26.387 12.9521 26.3888 12.9488 26.3902 12.9465C26.3811 12.9233 26.3719 12.9006 26.3632 12.8774V12.877Z" fill="black"/>
<path d="M16 0.22485C18.1299 0.22485 20.1958 0.642095 22.1404 1.46453C24.0188 2.25916 25.7059 3.39638 27.1546 4.84562C28.6034 6.29439 29.7411 7.98146 30.5357 9.85999C31.3582 11.8048 31.7754 13.8707 31.7754 16.0005C31.7754 18.1303 31.3582 20.1961 30.5357 22.1409C29.7411 24.0195 28.6038 25.7065 27.1546 27.1553C25.7059 28.6041 24.0188 29.7418 22.1404 30.5364C20.1958 31.3588 18.1299 31.7761 16 31.7761C13.8701 31.7761 11.8042 31.3588 9.85956 30.5364C7.98124 29.7418 6.29414 28.6045 4.84538 27.1553C3.39661 25.7065 2.25892 24.0195 1.46432 22.1409C0.641811 20.1961 0.224611 18.1303 0.224611 16.0005C0.224611 13.8707 0.641811 11.8048 1.46432 9.85999C2.25892 7.98146 3.39616 6.29439 4.84538 4.84562C6.29414 3.39685 7.98124 2.25916 9.85956 1.46453C11.8042 0.642095 13.8701 0.22485 16 0.22485ZM16 0C7.16331 0 0 7.16365 0 16C0 24.8363 7.16331 32 16 32C24.8367 32 32 24.8363 32 16C32 7.16365 24.8367 0 16 0Z" fill="black"/>
<path d="M16 4.17734C17.5961 4.17734 19.1446 4.48981 20.6016 5.10641C22.0092 5.70168 23.2736 6.55426 24.3596 7.64002C25.4456 8.72579 26.2978 9.99005 26.8934 11.398C27.5101 12.8556 27.8225 14.4036 27.8225 15.9998C27.8225 17.596 27.5101 19.144 26.8934 20.6015C26.2978 22.0095 25.4456 23.2738 24.3596 24.3595C23.2736 25.4453 22.0092 26.2979 20.6016 26.8932C19.1441 27.5097 17.5961 27.8222 16 27.8222C14.4039 27.8222 12.8554 27.5097 11.3984 26.8932C9.99085 26.2979 8.72644 25.4453 7.64044 24.3595C6.55444 23.2738 5.7022 22.0095 5.10659 20.6015C4.48994 19.144 4.1775 17.596 4.1775 15.9998C4.1775 14.4036 4.48994 12.8556 5.10659 11.398C5.7022 9.99005 6.55444 8.72579 7.64044 7.64002C8.72644 6.55426 9.9904 5.70168 11.3984 5.10641C12.8559 4.48981 14.4039 4.17734 16 4.17734ZM16 3.95898C9.35041 3.95898 3.95929 9.34981 3.95929 15.9998C3.95929 22.6498 9.34996 28.0406 16 28.0406C22.65 28.0406 28.0407 22.6498 28.0407 15.9998C28.0407 9.34981 22.65 3.95898 16 3.95898Z" fill="black"/>
<path d="M25.339 26.2019C27.7296 24.1296 29.269 21.1459 29.7544 18.0299C30.1414 15.5904 29.8582 13.0541 28.9479 10.7578C29.2123 11.4129 29.4346 12.0856 29.6025 12.7726C30.1043 14.8362 30.1194 17.017 29.6615 19.0907C29.0535 21.8621 27.6162 24.4745 25.4858 26.3698C25.3792 26.4597 25.2264 26.3118 25.3394 26.2024L25.339 26.2019Z" fill="black"/>
<path d="M27.2946 25.3842C26.9899 25.4408 26.6912 25.3772 26.446 25.228C26.6217 25.0008 26.8779 24.8348 27.1825 24.7783C27.4872 24.7217 27.7859 24.7852 28.0311 24.9345C27.8554 25.1617 27.5993 25.3276 27.2946 25.3842Z" fill="black"/>
<path d="M26.747 24.4187C26.7498 24.7284 26.6354 25.0116 26.446 25.2272C26.2525 25.0149 26.1336 24.7335 26.1313 24.4238C26.1286 24.1141 26.2429 23.8308 26.4323 23.6152C26.6258 23.8276 26.7448 24.109 26.747 24.4187Z" fill="black"/>
<path d="M28.2461 24.0983C27.9492 24.1873 27.6455 24.1562 27.3856 24.0343C27.5357 23.7895 27.7726 23.5967 28.0695 23.5081C28.3664 23.4191 28.6702 23.4502 28.93 23.5721C28.7799 23.8169 28.543 24.0097 28.2461 24.0983Z" fill="black"/>
<path d="M27.5979 23.1985C27.634 23.5064 27.5508 23.8003 27.3856 24.0349C27.1706 23.8448 27.022 23.5778 26.9863 23.2699C26.9501 22.9621 27.0334 22.6682 27.1985 22.4336C27.4135 22.6237 27.5622 22.8907 27.5979 23.1985Z" fill="black"/>
<path d="M29.054 22.7195C28.7685 22.8396 28.463 22.8419 28.1917 22.7482C28.3143 22.4886 28.5297 22.2717 28.8147 22.1516C29.1002 22.0315 29.4058 22.0292 29.677 22.1228C29.5544 22.3825 29.339 22.5994 29.054 22.7195Z" fill="black"/>
<path d="M28.3129 21.893C28.3815 22.1948 28.3307 22.4961 28.1917 22.7474C27.9574 22.5814 27.7809 22.332 27.7122 22.0302C27.6436 21.7284 27.6944 21.4271 27.8335 21.1758C28.0677 21.3418 28.2443 21.5912 28.3129 21.893Z" fill="black"/>
<path d="M29.7086 21.2609C29.4378 21.4111 29.134 21.4464 28.8545 21.3824C28.9488 21.1112 29.1391 20.8724 29.4099 20.7222C29.6807 20.572 29.9844 20.5368 30.2639 20.6007C30.1697 20.872 29.9794 21.1107 29.7086 21.2609Z" fill="black"/>
<path d="M28.8829 20.519C28.984 20.812 28.9657 21.1166 28.8541 21.3813C28.6034 21.2413 28.4012 21.0123 28.3001 20.7197C28.199 20.4267 28.2173 20.1221 28.3289 19.8574C28.5796 19.9974 28.7818 20.2265 28.8829 20.519Z" fill="black"/>
<path d="M30.2027 19.7401C29.9497 19.9186 29.6514 19.9863 29.3664 19.9529C29.4309 19.6734 29.5947 19.4151 29.8477 19.2366C30.1006 19.0582 30.3989 18.9905 30.6839 19.0238C30.6194 19.3034 30.4556 19.5616 30.2027 19.7401Z" fill="black"/>
<path d="M29.3024 19.0927C29.4341 19.3731 29.4488 19.6782 29.3664 19.9531C29.102 19.8409 28.8765 19.6351 28.7447 19.3546C28.613 19.0741 28.5983 18.7691 28.6807 18.4941C28.9451 18.6063 29.1706 18.8122 29.3024 19.0927Z" fill="black"/>
<path d="M30.5306 18.1742C30.2983 18.3787 30.0091 18.4779 29.7223 18.4756C29.7562 18.1904 29.8911 17.9165 30.124 17.7115C30.3564 17.5071 30.6455 17.4079 30.9323 17.4102C30.8984 17.6953 30.7635 17.9693 30.5306 18.1742Z" fill="black"/>
<path d="M29.5654 17.6277C29.7264 17.8919 29.774 18.1937 29.7219 18.4761C29.4469 18.3931 29.2004 18.2127 29.0393 17.948C28.8783 17.6838 28.8307 17.3819 28.8829 17.0996C29.1578 17.1826 29.4044 17.3629 29.5654 17.6277Z" fill="black"/>
<path d="M30.688 16.5838C30.479 16.8123 30.2022 16.9417 29.9167 16.9704C29.92 16.6834 30.0247 16.3965 30.2338 16.1679C30.4428 15.9393 30.7196 15.81 31.005 15.7812C31.0018 16.0682 30.8971 16.3552 30.688 16.5838Z" fill="black"/>
<path d="M29.6697 16.1434C29.8582 16.3891 29.9382 16.684 29.9163 16.97C29.634 16.9172 29.3696 16.7642 29.1811 16.5185C28.9927 16.2728 28.9126 15.9779 28.9346 15.6914C29.2168 15.7443 29.4812 15.8972 29.6697 16.143V16.1434Z" fill="black"/>
<path d="M30.6734 14.9845C30.4899 15.2339 30.2287 15.393 29.9478 15.4518C29.9199 15.1663 29.9936 14.8695 30.1766 14.6197C30.36 14.3702 30.6212 14.2112 30.9021 14.1523C30.93 14.4379 30.8563 14.7346 30.6734 14.9845Z" fill="black"/>
<path d="M29.6134 14.6571C29.8275 14.881 29.9382 15.1656 29.9478 15.4526C29.6615 15.4304 29.3824 15.3066 29.1683 15.0827C28.9542 14.8587 28.8435 14.5741 28.8339 14.2871C29.1203 14.3094 29.3993 14.4331 29.6134 14.6571Z" fill="black"/>
<path d="M30.4872 13.3966C30.3316 13.6645 30.0892 13.8504 29.8161 13.939C29.758 13.658 29.7987 13.3553 29.9542 13.0873C30.1098 12.8194 30.3522 12.6335 30.6253 12.5449C30.6834 12.8259 30.6427 13.1286 30.4872 13.3966Z" fill="black"/>
<path d="M29.398 13.1847C29.6349 13.384 29.7758 13.6553 29.8156 13.9394C29.5288 13.9482 29.2374 13.8551 29.0009 13.6557C28.7639 13.4564 28.6231 13.1852 28.5833 12.901C28.8701 12.8922 29.1615 12.9853 29.398 13.1847Z" fill="black"/>
<path d="M30.1308 11.8384C30.005 12.1217 29.7841 12.3321 29.5219 12.4499C29.4337 12.1768 29.4419 11.8713 29.5677 11.5881C29.6935 11.3048 29.9144 11.0943 30.1766 10.9766C30.2649 11.2496 30.2566 11.5551 30.1308 11.8384Z" fill="black"/>
<path d="M29.0256 11.7433C29.2827 11.9162 29.452 12.1708 29.5224 12.4489C29.2379 12.4883 28.9387 12.4271 28.6816 12.2542C28.4245 12.0813 28.2553 11.8268 28.1848 11.5486C28.4694 11.5092 28.7685 11.5704 29.0256 11.7433Z" fill="black"/>
<path d="M29.2598 10.5716C29.349 10.8683 29.3188 11.1719 29.1972 11.432C28.952 11.2823 28.7589 11.0458 28.6697 10.7491C28.5805 10.4524 28.6107 10.1488 28.7324 9.88867C28.9776 10.0384 29.1706 10.2749 29.2598 10.5716Z" fill="black"/>
<path d="M6.68253 26.3698C3.48811 23.5223 1.86048 19.1051 2.22599 14.8654C2.34127 13.4546 2.6871 12.0675 3.2205 10.7578C2.7054 12.0721 2.37832 13.4606 2.2818 14.8695C2.07732 17.6767 2.74566 20.5432 4.16698 22.9706C4.87512 24.1825 5.7699 25.2868 6.82937 26.2019C6.87603 26.2423 6.88107 26.3123 6.84081 26.3591C6.80055 26.4059 6.72919 26.411 6.68253 26.3698Z" fill="black"/>
<path d="M4.87328 25.3842C5.17795 25.4408 5.47667 25.3772 5.72187 25.228C5.5462 25.0008 5.29003 24.8348 4.98536 24.7783C4.6807 24.7217 4.38198 24.7852 4.13678 24.9345C4.31244 25.1617 4.56862 25.3276 4.87328 25.3842Z" fill="black"/>
<path d="M5.42086 24.4187C5.41811 24.7284 5.53248 25.0116 5.72186 25.2272C5.91537 25.0149 6.03431 24.7335 6.03659 24.4238C6.03934 24.1141 5.92497 23.8308 5.73559 23.6152C5.54208 23.8276 5.42314 24.109 5.42086 24.4187Z" fill="black"/>
<path d="M3.92178 24.0983C4.21867 24.1873 4.52242 24.1562 4.78226 24.0343C4.63221 23.7895 4.39525 23.5967 4.09836 23.5081C3.80147 23.4191 3.49772 23.4502 3.23788 23.5721C3.38793 23.8169 3.62489 24.0097 3.92178 24.0983Z" fill="black"/>
<path d="M4.56998 23.1985C4.53385 23.5064 4.6171 23.8003 4.78224 24.0349C4.99725 23.8448 5.14592 23.5778 5.1816 23.2699C5.21774 22.9621 5.13448 22.6682 4.96934 22.4336C4.75434 22.6237 4.60567 22.8907 4.56998 23.1985Z" fill="black"/>
<path d="M3.1139 22.7195C3.39935 22.8396 3.70493 22.8419 3.97621 22.7482C3.85361 22.4886 3.63815 22.2717 3.35315 22.1516C3.06816 22.0315 2.76212 22.0292 2.49084 22.1228C2.61344 22.3825 2.8289 22.5994 3.1139 22.7195Z" fill="black"/>
<path d="M3.85498 21.893C3.78636 22.1948 3.83713 22.4961 3.9762 22.7474C4.21042 22.5814 4.387 22.332 4.45562 22.0302C4.52423 21.7284 4.47346 21.4271 4.33439 21.1758C4.10017 21.3418 3.92359 21.5912 3.85498 21.893Z" fill="black"/>
<path d="M2.45928 21.2609C2.7301 21.4111 3.03385 21.4464 3.31335 21.3824C3.21912 21.1112 3.02882 20.8724 2.758 20.7222C2.48719 20.572 2.18344 20.5368 1.90393 20.6007C1.99817 20.872 2.18847 21.1107 2.45928 21.2609Z" fill="black"/>
<path d="M3.28499 20.519C3.18389 20.812 3.20219 21.1166 3.31381 21.3813C3.5645 21.2413 3.76669 21.0123 3.86779 20.7197C3.96889 20.4267 3.95059 20.1221 3.83897 19.8574C3.58829 19.9974 3.38609 20.2265 3.28499 20.519Z" fill="black"/>
<path d="M1.96522 19.7401C2.2182 19.9186 2.51646 19.9863 2.80145 19.9529C2.73695 19.6734 2.57318 19.4151 2.32021 19.2366C2.06724 19.0582 1.76897 18.9905 1.48398 19.0238C1.54848 19.3034 1.71225 19.5616 1.96522 19.7401Z" fill="black"/>
<path d="M2.86549 19.0927C2.73374 19.3731 2.7191 19.6782 2.80145 19.9531C3.06586 19.8409 3.29138 19.6351 3.42313 19.3546C3.55488 19.0741 3.56952 18.7691 3.48717 18.4941C3.22276 18.6063 2.99724 18.8122 2.86549 19.0927Z" fill="black"/>
<path d="M1.63724 18.1742C1.86963 18.3787 2.15874 18.4779 2.44557 18.4756C2.41172 18.1904 2.27677 17.9165 2.04392 17.7115C1.81153 17.5071 1.52242 17.4079 1.2356 17.4102C1.26945 17.6953 1.4044 17.9693 1.63724 18.1742Z" fill="black"/>
<path d="M2.60248 17.6277C2.44145 17.8919 2.39388 18.1937 2.44603 18.4761C2.72096 18.3931 2.96753 18.2127 3.12855 17.948C3.28958 17.6838 3.33715 17.3819 3.285 17.0996C3.01007 17.1826 2.7635 17.3629 2.60248 17.6277Z" fill="black"/>
<path d="M1.47986 16.5838C1.68892 16.8123 1.96568 16.9417 2.25113 16.9704C2.24793 16.6834 2.14317 16.3965 1.93411 16.1679C1.72506 15.9393 1.44829 15.81 1.16284 15.7812C1.16604 16.0682 1.2708 16.3552 1.47986 16.5838Z" fill="black"/>
<path d="M2.49815 16.1434C2.30968 16.3891 2.22963 16.684 2.25158 16.97C2.53383 16.9172 2.79824 16.7642 2.98672 16.5185C3.17519 16.2728 3.25524 15.9779 3.23328 15.6914C2.95103 15.7443 2.68662 15.8972 2.49815 16.143V16.1434Z" fill="black"/>
<path d="M1.4945 14.9845C1.67794 15.2339 1.93915 15.393 2.22003 15.4518C2.24793 15.1663 2.17428 14.8695 1.9913 14.6197C1.80786 14.3702 1.54665 14.2112 1.26577 14.1523C1.23787 14.4379 1.31152 14.7346 1.4945 14.9845Z" fill="black"/>
<path d="M2.55443 14.6571C2.34034 14.881 2.22964 15.1656 2.22003 15.4526C2.5064 15.4304 2.78545 15.3066 2.99954 15.0827C3.21363 14.8587 3.32433 14.5741 3.33394 14.2871C3.04757 14.3094 2.76852 14.4331 2.55443 14.6571Z" fill="black"/>
<path d="M1.68068 13.3966C1.83622 13.6645 2.07867 13.8504 2.35177 13.939C2.40987 13.658 2.36915 13.3553 2.21362 13.0873C2.05808 12.8194 1.81563 12.6335 1.54253 12.5449C1.48443 12.8259 1.52515 13.1286 1.68068 13.3966Z" fill="black"/>
<path d="M2.76989 13.1847C2.53293 13.384 2.39203 13.6553 2.35223 13.9394C2.63906 13.9482 2.93046 13.8551 3.16696 13.6557C3.40393 13.4564 3.54482 13.1852 3.58462 12.901C3.2978 12.8922 3.0064 12.9853 2.76989 13.1847Z" fill="black"/>
<path d="M2.03705 11.8384C2.16286 12.1217 2.38381 12.3321 2.64593 12.4499C2.73422 12.1768 2.72598 11.8713 2.60018 11.5881C2.47438 11.3048 2.25343 11.0943 1.99131 10.9766C1.90302 11.2496 1.91125 11.5551 2.03705 11.8384Z" fill="black"/>
<path d="M3.14228 11.7433C2.88518 11.9162 2.71593 12.1708 2.64548 12.4489C2.93002 12.4883 3.22919 12.4271 3.48628 12.2542C3.74337 12.0813 3.91263 11.8268 3.98308 11.5486C3.69854 11.5092 3.39937 11.5704 3.14228 11.7433Z" fill="black"/>
<path d="M2.90805 10.5716C2.81885 10.8683 2.84904 11.1719 2.97072 11.432C3.21592 11.2823 3.40897 11.0458 3.49817 10.7491C3.58737 10.4524 3.55718 10.1488 3.4355 9.88867C3.1903 10.0384 2.99725 10.2749 2.90805 10.5716Z" fill="black"/>
<path d="M16.0347 16.0186C16.0449 16.0186 16.053 16.0105 16.053 16.0005C16.053 15.9905 16.0449 15.9824 16.0347 15.9824C16.0246 15.9824 16.0164 15.9905 16.0164 16.0005C16.0164 16.0105 16.0246 16.0186 16.0347 16.0186Z" fill="black"/>
<path d="M9.34948 27.0273L9.86823 27.3537L9.77629 27.4998L9.62167 27.4223L9.03795 28.3486L9.17473 28.4548L9.08278 28.6008L8.56448 28.2744L8.65643 28.1284L8.81288 28.2072L9.3966 27.2809L9.25799 27.1738L9.34994 27.0278L9.34948 27.0273Z" fill="black"/>
<path d="M9.81016 29.0054L9.27264 28.7244L9.3527 28.5714L9.5151 28.6373L10.022 27.6669L9.87511 27.571L9.95517 27.418C10.1226 27.5056 10.3092 27.5747 10.4602 27.6535C10.8175 27.8403 10.9126 28.08 10.7896 28.315C10.699 28.4884 10.5375 28.5728 10.3463 28.5487L10.3536 29.0684L10.5014 29.1718L10.4213 29.3248L10.0988 29.1565V28.4819L9.9355 28.3962L9.74611 28.7583L9.8893 28.8524L9.80924 29.0054H9.81016ZM10.2589 27.7791L10.0247 28.227L10.1775 28.3067C10.3358 28.3892 10.468 28.3563 10.5448 28.2089C10.624 28.0577 10.5586 27.9358 10.393 27.8491L10.2585 27.7787L10.2589 27.7791Z" fill="black"/>
<path d="M11.4003 28.1372L11.8879 28.3277L11.8728 29.7028L11.995 29.7663L11.9323 29.9272L11.398 29.7185L11.4611 29.5577L11.6203 29.6017L11.629 29.2999L11.1509 29.1131L10.9552 29.3398L11.1185 29.4237L11.0558 29.5846L10.5215 29.3759L10.5842 29.2151L10.7173 29.2512L11.5009 28.382L11.3376 28.2976L11.4003 28.1367V28.1372ZM11.6404 29.0987L11.6573 28.5132L11.2786 28.9573L11.6404 29.0987Z" fill="black"/>
<path d="M13.7928 28.8924L14.3344 29.0291L14.2923 29.1965L14.1395 29.1733L13.4982 30.3388L13.2324 30.2716L13.1816 29.1075L12.5842 30.108L12.3184 30.0407L12.3134 28.712L12.1738 28.6615L12.2159 28.4941L12.7699 28.6341L12.7278 28.8015L12.5686 28.7788L12.5467 29.7663L13.1551 28.7315L13.4026 28.7941L13.4542 30.0064L13.9012 29.1177L13.7507 29.0602L13.7928 28.8928V28.8924Z" fill="black"/>
<path d="M14.2315 29.7265C14.2795 29.2828 14.5522 28.9986 15.0169 29.0487C15.4506 29.0955 15.6738 29.4288 15.6244 29.885C15.5755 30.3394 15.2832 30.6087 14.8349 30.56C14.403 30.5137 14.1816 30.1845 14.231 29.726L14.2315 29.7265ZM15.3518 29.86C15.3884 29.5206 15.2402 29.306 14.9863 29.2786C14.7219 29.2503 14.5384 29.4233 14.5027 29.7538C14.4662 30.0932 14.6102 30.3074 14.8747 30.3361C15.1267 30.363 15.3166 30.191 15.3522 29.8604L15.3518 29.86Z" fill="black"/>
<path d="M16.2845 29.8974C16.2635 29.4514 16.4895 29.1288 16.9561 29.1065C17.392 29.0856 17.6637 29.3805 17.6852 29.839C17.7067 30.2952 17.4593 30.6063 17.0091 30.6281C16.5755 30.6489 16.306 30.3582 16.2841 29.8974H16.2845ZM17.4121 29.8562C17.3961 29.5154 17.2164 29.3258 16.9616 29.3378C16.6962 29.3504 16.5411 29.5497 16.5567 29.8821C16.5727 30.2229 16.7484 30.4125 17.0137 30.4C17.2667 30.3879 17.4282 30.1886 17.4121 29.8562Z" fill="black"/>
<path d="M19.2086 28.828L19.758 28.7246L19.79 28.8943L19.6418 28.9374L19.5489 30.2642L19.2795 30.3152L18.7447 29.28L18.6221 30.4386L18.3527 30.4896L17.7905 29.286L17.6427 29.299L17.6107 29.1293L18.172 29.0236L18.204 29.1933L18.0498 29.2392L18.4442 30.1442L18.5622 28.9499L18.8133 28.9026L19.3692 29.981L19.4021 28.987L19.2415 28.9981L19.2095 28.8285L19.2086 28.828Z" fill="black"/>
<path d="M20.5686 28.4218L21.1157 28.2363L21.1711 28.4L21.0311 28.4654L21.2447 29.0959C21.3902 29.5247 21.2566 29.7723 20.9204 29.8863C20.586 29.9999 20.3198 29.8877 20.1757 29.4626L19.9602 28.8265L19.8097 28.8617L19.7543 28.6981L20.3211 28.5061L20.3765 28.6698L20.2127 28.7431L20.4282 29.3791C20.5169 29.6401 20.6596 29.7254 20.8545 29.6591C21.0434 29.5952 21.1052 29.4473 21.0146 29.1802L20.7996 28.546L20.6244 28.5854L20.5691 28.4218H20.5686Z" fill="black"/>
<path d="M22.3536 29.2832L21.8042 29.54L21.731 29.3833L21.882 29.2943L21.4181 28.3022L21.253 28.3611L21.1798 28.2044C21.3509 28.1242 21.5192 28.018 21.6734 27.9457C22.0384 27.7751 22.2868 27.8451 22.3989 28.0852C22.4817 28.2628 22.4511 28.4422 22.3156 28.5799L22.7333 28.8891L22.9048 28.8344L22.978 28.9911L22.6487 29.1451L22.113 28.7352L21.9456 28.8136L22.1185 29.1835L22.28 29.127L22.3532 29.2832H22.3536ZM21.6505 28.1817L21.8646 28.6397L22.0206 28.5665C22.1825 28.4909 22.2365 28.3657 22.1661 28.2151C22.0938 28.0607 21.9575 28.0384 21.7877 28.1177L21.6505 28.1821V28.1817Z" fill="black"/>
<path d="M22.7488 28.277C22.516 27.896 22.5595 27.5047 22.9584 27.2608C23.3307 27.0332 23.7109 27.1616 23.9501 27.5534C24.1885 27.9432 24.1208 28.335 23.736 28.57C23.3655 28.7963 22.9895 28.6706 22.7488 28.277ZM23.7182 27.6999C23.5402 27.4087 23.2918 27.3285 23.0736 27.4616C22.8467 27.6002 22.8065 27.8491 22.9799 28.1333C23.1578 28.4245 23.4025 28.5065 23.6294 28.3679C23.8458 28.2358 23.8911 27.9836 23.7177 27.6994L23.7182 27.6999Z" fill="black"/>
<path d="M4.25297 8.92991C3.81381 8.63737 3.6935 8.20066 3.9913 7.75374C4.27721 7.32444 4.73101 7.25536 5.17612 7.55161C5.62122 7.84785 5.72735 8.29291 5.43641 8.73009C5.1505 9.15939 4.6999 9.22801 4.25251 8.92991H4.25297ZM4.95425 7.88911C4.67154 7.70089 4.41491 7.7301 4.27127 7.94567C4.12351 8.16728 4.19441 8.40882 4.47346 8.59426C4.75617 8.78248 5.01372 8.75652 5.16102 8.53492C5.30329 8.32119 5.23284 8.07456 4.95425 7.88911Z" fill="black"/>
<path d="M4.68756 6.82137L5.199 6.22656L5.38701 6.38836L5.26533 6.56314L6.08509 7.26829L6.35316 6.95674L6.17063 6.75878L6.33623 6.56592L6.77265 6.98178L5.96524 7.92105L5.77722 7.75925L5.87878 7.61136L5.00595 6.86078L4.87512 6.98317L4.6871 6.82137H4.68756Z" fill="black"/>
<path d="M6.33119 5.07507L6.84903 4.5957L7.01737 4.7779L6.91536 4.89519L7.3751 5.39172C7.758 5.80525 7.71042 6.13488 7.40164 6.42092C7.09285 6.70697 6.75708 6.73525 6.37739 6.32496L5.91124 5.82102L5.78956 5.91374L5.62122 5.73154L6.1601 5.2327L6.3289 5.4149L6.20585 5.55491L6.67199 6.05885C6.87327 6.27628 7.02652 6.29853 7.1784 6.15806C7.31975 6.02732 7.32295 5.8734 7.11481 5.64902L6.65004 5.14693L6.49907 5.25681L6.33073 5.07461L6.33119 5.07507Z" fill="black"/>
<path d="M8.65324 3.34129L9.23055 2.96484L9.36596 3.17254L9.23604 3.27778L9.69029 4.67833L9.35589 4.89669L8.43778 4.12062L8.7827 5.27082L8.4483 5.48918L7.35681 4.50402L7.21408 4.5768L7.07867 4.36911L7.67382 3.98061L7.80923 4.1883L7.68252 4.294L8.37511 4.96392L8.00228 3.76642L8.31701 3.56104L9.28636 4.38997L8.93823 3.47806L8.7891 3.54945L8.6537 3.34175L8.65324 3.34129Z" fill="black"/>
<path d="M9.62717 2.81372L10.285 2.51562L11.3564 3.59027L11.4995 3.5439L11.602 3.77015L10.9442 4.06824L10.8417 3.84247L10.994 3.75253L10.8033 3.55086L10.3248 3.76736L10.3541 4.0395L10.5471 3.97599L10.6496 4.20176L9.99176 4.49986L9.88929 4.27409L10.0187 4.19713L9.93869 2.97228L9.72964 3.04043L9.62717 2.81465V2.81372ZM10.6148 3.34224L10.2328 2.93612L10.2905 3.4892L10.6153 3.34224H10.6148Z" fill="black"/>
<path d="M12.2369 3.61102C12.0503 3.66712 11.8143 3.70745 11.6413 3.75937L11.57 3.52154L11.7351 3.452L11.4048 2.34908L11.2287 2.38153L11.1573 2.1437C11.3874 2.07463 11.5997 1.98098 11.7841 1.92581C12.328 1.76308 12.8037 1.88455 12.9744 2.45478C13.1546 3.05701 12.817 3.43717 12.2365 3.61102H12.2369ZM11.9396 2.22113L11.7941 2.2647L12.1052 3.30319L12.2484 3.26007C12.5489 3.17013 12.7077 2.97171 12.5979 2.60499C12.4853 2.22901 12.2379 2.13211 11.9396 2.22113Z" fill="black"/>
<path d="M13.2704 1.56754L13.9835 1.45117L14.7379 2.76782L14.8884 2.7604L14.9282 3.00518L14.215 3.12155L14.1752 2.87676L14.3458 2.82948L14.2146 2.58516L13.6963 2.66999L13.6537 2.94028L13.8564 2.92915L13.8962 3.17394L13.183 3.2903L13.1432 3.04552L13.2882 3.00472L13.5297 1.8012L13.3102 1.81279L13.2704 1.568V1.56754ZM14.0869 2.33481L13.8239 1.84338L13.7351 2.39229L14.0869 2.33481Z" fill="black"/>
<path d="M15.6999 2.98836L14.9707 3.01154L14.963 2.76351L15.1404 2.74079L15.1038 1.58734L14.925 1.5739L14.9172 1.32587C15.1574 1.31845 15.382 1.28229 15.5741 1.27626C16.0705 1.2605 16.3102 1.46031 16.3193 1.76119C16.3257 1.96565 16.2242 2.14042 16.0348 2.23778L16.3015 2.69443L16.4922 2.71483L16.5 2.96286L16.032 2.9777L15.6738 2.33329L15.5146 2.33838L15.527 2.72596L15.6917 2.73987L15.6995 2.9879L15.6999 2.98836ZM15.4913 1.57297L15.5073 2.07367L15.6592 2.06903C15.8422 2.063 15.9341 1.96611 15.9291 1.80245C15.9236 1.63648 15.817 1.56277 15.6409 1.56833L15.4913 1.57297Z" fill="black"/>
<path d="M17.8188 3.08166L16.564 2.97457L16.5851 2.72747L16.7644 2.72329L16.8627 1.57633L16.6871 1.54202L16.7081 1.29492L17.9533 1.40109L17.8829 1.89297L17.6272 1.87118L17.6377 1.69316L17.2516 1.66024L17.22 2.02974L17.6912 2.07007L17.6656 2.37003L17.1944 2.32969L17.1624 2.7066L17.5979 2.74369L17.6358 2.5754L17.8893 2.59719L17.8193 3.08213L17.8188 3.08166Z" fill="black"/>
<path d="M18.6629 2.35181C18.7923 1.84045 19.1642 1.58176 19.6848 1.71389C20.1848 1.84045 20.4007 2.24518 20.2694 2.7635C20.1382 3.28181 19.7543 3.52984 19.2452 3.40095C18.7452 3.27439 18.5311 2.87244 18.6629 2.35181ZM19.8774 2.66706C19.9607 2.3379 19.8481 2.10564 19.597 2.04212C19.339 1.97675 19.1349 2.12372 19.0531 2.44824C18.9698 2.7774 19.0796 3.01152 19.3376 3.07689C19.5865 3.13994 19.7955 2.99159 19.8779 2.66706H19.8774Z" fill="black"/>
<path d="M22.4456 2.73654L23.0778 3.01054L22.979 3.23817L22.8198 3.18763L21.9007 4.33784L21.5348 4.17882L21.677 2.98596L20.9071 3.90669L20.5412 3.74767L20.7626 2.29473L20.6231 2.21591L20.7219 1.98828L21.3737 2.27108L21.2749 2.49871L21.1166 2.45096L20.9387 3.39765L21.7328 2.42685L22.0773 2.57614L21.919 3.84132L22.4886 3.04855L22.3467 2.96325L22.4456 2.73562V2.73654Z" fill="black"/>
<path d="M22.8367 3.87378C23.1221 3.43011 23.5567 3.30308 24.0087 3.59376C24.4424 3.87286 24.5188 4.32534 24.2296 4.77503C23.9405 5.22473 23.4977 5.33785 23.0558 5.05366C22.6217 4.77457 22.5462 4.32534 22.8367 3.87332V3.87378ZM23.8888 4.55853C24.0723 4.27295 24.0393 4.01657 23.8216 3.87656C23.5974 3.73238 23.3573 3.80702 23.1766 4.0889C22.9931 4.37448 23.0229 4.63132 23.2466 4.7755C23.4625 4.91458 23.7077 4.8404 23.8888 4.55853Z" fill="black"/>
<path d="M24.9511 4.2739L25.5535 4.77552L25.3948 4.96607L25.2182 4.84738L24.5261 5.67817L24.8422 5.94103L25.0371 5.75559L25.2324 5.91832L24.8234 6.36106L23.8719 5.56876L24.0307 5.37821L24.1798 5.47742L24.9163 4.59286L24.7914 4.46398L24.9501 4.27344L24.9511 4.2739Z" fill="black"/>
<path d="M26.3481 5.49414L26.8436 6.02033L26.1738 7.38195L26.264 7.50249L26.0833 7.67263L25.5883 7.1469L25.769 6.97676L25.9035 7.09173L26.0325 6.84602L25.6725 6.46354L25.4245 6.57944L25.5471 6.74124L25.3664 6.91139L24.8715 6.38566L25.0522 6.21551L25.167 6.31287L26.2996 5.83999L26.1674 5.66428L26.3481 5.49414ZM26.1688 6.59984L26.4291 6.10656L25.9245 6.34022L26.1688 6.59984Z" fill="black"/>
<path d="M26.462 8.25663C26.3477 8.09901 26.2118 7.86257 26.1016 7.7105L26.3024 7.56493L26.4227 7.69799L27.355 7.02205L27.2658 6.86627L27.4666 6.7207C27.6089 6.91681 27.7566 7.07119 27.871 7.22882C28.1459 7.60758 28.1523 7.89966 27.9222 8.06655C27.7507 8.19126 27.5622 8.16901 27.4488 8.07814L27.4451 8.08093C27.5142 8.27471 27.4785 8.45923 27.3065 8.58348C27.0549 8.76614 26.7411 8.64096 26.462 8.25663ZM26.7466 8.14444C26.8486 8.28491 26.9684 8.3271 27.0933 8.2367C27.22 8.1449 27.2182 8.01092 27.1066 7.857L27.027 7.74759L26.6546 8.01788L26.7466 8.1449V8.14444ZM27.3083 7.71653C27.3975 7.83985 27.5279 7.87138 27.6528 7.78097C27.7699 7.69613 27.7589 7.57467 27.6839 7.47082L27.5888 7.34008L27.226 7.60295L27.3083 7.71653Z" fill="black"/>
<path d="M28.4442 8.1196L28.8257 8.7668L28.6121 8.8929L28.505 8.74918L27.5133 9.33379L27.5874 9.49698L27.3737 9.62308L26.9922 8.97589L27.2059 8.84979L27.3129 8.9935L28.3047 8.40889L28.2306 8.24524L28.4442 8.11914V8.1196Z" fill="black"/>
</svg>
