<svg width="40" height="40" viewBox="0 0 40 40" fill="none" xmlns="http://www.w3.org/2000/svg">
<path d="M31.4286 0H8.57143C3.83756 0 0 3.83756 0 8.57143V31.4286C0 36.1624 3.83756 40 8.57143 40H31.4286C36.1624 40 40 36.1624 40 31.4286V8.57143C40 3.83756 36.1624 0 31.4286 0Z" fill="url(#paint0_radial_910_2279)"/>
<path d="M31.4286 0H8.57143C3.83756 0 0 3.83756 0 8.57143V31.4286C0 36.1624 3.83756 40 8.57143 40H31.4286C36.1624 40 40 36.1624 40 31.4286V8.57143C40 3.83756 36.1624 0 31.4286 0Z" fill="url(#paint1_radial_910_2279)"/>
<path d="M31.4286 0H8.57143C3.83756 0 0 3.83756 0 8.57143V31.4286C0 36.1624 3.83756 40 8.57143 40H31.4286C36.1624 40 40 36.1624 40 31.4286V8.57143C40 3.83756 36.1624 0 31.4286 0Z" fill="url(#paint2_radial_910_2279)"/>
<path d="M29.9996 12.1429C29.9996 13.3263 29.0402 14.2857 27.8567 14.2857C26.6733 14.2857 25.7139 13.3263 25.7139 12.1429C25.7139 10.9594 26.6733 10 27.8567 10C29.0402 10 29.9996 10.9594 29.9996 12.1429Z" fill="white"/>
<path fill-rule="evenodd" clip-rule="evenodd" d="M20.0003 27.1431C23.9451 27.1431 27.1431 23.9451 27.1431 20.0003C27.1431 16.0554 23.9451 12.8574 20.0003 12.8574C16.0554 12.8574 12.8574 16.0554 12.8574 20.0003C12.8574 23.9451 16.0554 27.1431 20.0003 27.1431ZM20.0003 24.286C22.3673 24.286 24.286 22.3673 24.286 20.0003C24.286 17.6333 22.3673 15.7146 20.0003 15.7146C17.6333 15.7146 15.7146 17.6333 15.7146 20.0003C15.7146 22.3673 17.6333 24.286 20.0003 24.286Z" fill="white"/>
<path fill-rule="evenodd" clip-rule="evenodd" d="M5.71387 19.4291C5.71387 14.6287 5.71387 12.2284 6.6481 10.3949C7.46987 8.7821 8.78112 7.47084 10.394 6.64907C12.2274 5.71484 14.6277 5.71484 19.4282 5.71484H20.571C25.3714 5.71484 27.7717 5.71484 29.6052 6.64907C31.218 7.47084 32.5293 8.7821 33.351 10.3949C34.2853 12.2284 34.2853 14.6287 34.2853 19.4291V20.572C34.2853 25.3724 34.2853 27.7727 33.351 29.6061C32.5293 31.219 31.218 32.5303 29.6052 33.352C27.7717 34.2863 25.3714 34.2863 20.571 34.2863H19.4282C14.6277 34.2863 12.2274 34.2863 10.394 33.352C8.78112 32.5303 7.46987 31.219 6.6481 29.6061C5.71387 27.7727 5.71387 25.3724 5.71387 20.572V19.4291ZM19.4282 8.57199H20.571C23.0184 8.57199 24.682 8.57422 25.968 8.67927C27.2207 8.78162 27.8613 8.96712 28.3082 9.1948C29.3833 9.74266 30.2574 10.6168 30.8053 11.692C31.033 12.1388 31.2186 12.7794 31.3209 14.0321C31.4259 15.3181 31.4282 16.9817 31.4282 19.4291V20.572C31.4282 23.0194 31.4259 24.683 31.3209 25.969C31.2186 27.2217 31.033 27.8623 30.8053 28.3091C30.2574 29.3843 29.3833 30.2584 28.3082 30.8063C27.8613 31.034 27.2207 31.2196 25.968 31.3218C24.682 31.4268 23.0184 31.4291 20.571 31.4291H19.4282C16.9807 31.4291 15.3172 31.4268 14.0312 31.3218C12.7784 31.2196 12.1379 31.034 11.691 30.8063C10.6159 30.2584 9.74168 29.3843 9.19382 28.3091C8.96614 27.8623 8.78064 27.2217 8.6783 25.969C8.57324 24.683 8.57101 23.0194 8.57101 20.572V19.4291C8.57101 16.9817 8.57324 15.3181 8.6783 14.0321C8.78064 12.7794 8.96614 12.1388 9.19382 11.692C9.74168 10.6168 10.6159 9.74266 11.691 9.1948C12.1379 8.96712 12.7784 8.78162 14.0312 8.67927C15.3172 8.57422 16.9807 8.57199 19.4282 8.57199Z" fill="white"/>
<defs>
<radialGradient id="paint0_radial_910_2279" cx="0" cy="0" r="1" gradientUnits="userSpaceOnUse" gradientTransform="translate(14.2857 30) rotate(-55.3758) scale(36.4566)">
<stop stop-color="#B13589"/>
<stop offset="0.79309" stop-color="#C62F94"/>
<stop offset="1" stop-color="#8A3AC8"/>
</radialGradient>
<radialGradient id="paint1_radial_910_2279" cx="0" cy="0" r="1" gradientUnits="userSpaceOnUse" gradientTransform="translate(12.8571 41.4286) rotate(-65.1363) scale(32.2774)">
<stop stop-color="#E0E8B7"/>
<stop offset="0.444662" stop-color="#FB8A2E"/>
<stop offset="0.71474" stop-color="#E2425C"/>
<stop offset="1" stop-color="#E2425C" stop-opacity="0"/>
</radialGradient>
<radialGradient id="paint2_radial_910_2279" cx="0" cy="0" r="1" gradientUnits="userSpaceOnUse" gradientTransform="translate(-2.14286 1.42857) rotate(-8.1301) scale(55.5584 11.8834)">
<stop offset="0.156701" stop-color="#406ADC"/>
<stop offset="0.467799" stop-color="#6A45BE"/>
<stop offset="1" stop-color="#6A45BE" stop-opacity="0"/>
</radialGradient>
</defs>
</svg>
