<svg width="40" height="40" viewBox="0 0 40 40" fill="none" xmlns="http://www.w3.org/2000/svg">
<path d="M40 20C40 8.95431 31.0457 0 20 0C8.95431 0 0 8.95431 0 20C0 31.0457 8.95431 40 20 40C31.0457 40 40 31.0457 40 20Z" fill="#1275B1"/>
<path d="M15.1694 10.9896C15.1694 12.3247 14.0121 13.407 12.5847 13.407C11.1572 13.407 10 12.3247 10 10.9896C10 9.65455 11.1572 8.57227 12.5847 8.57227C14.0121 8.57227 15.1694 9.65455 15.1694 10.9896Z" fill="white"/>
<path d="M10.3525 15.1816H14.7708V28.5701H10.3525V15.1816Z" fill="white"/>
<path d="M21.8851 15.1807H17.4668V28.5691H21.8851C21.8851 28.5691 21.8851 24.3543 21.8851 21.719C21.8851 20.1371 22.4252 18.5484 24.5802 18.5484C27.0157 18.5484 27.0011 20.6184 26.9897 22.2221C26.9748 24.3183 27.0102 26.4575 27.0102 28.5691H31.4285V21.503C31.3911 16.9911 30.2154 14.9121 26.3475 14.9121C24.0505 14.9121 22.6267 15.955 21.8851 16.8984V15.1807Z" fill="white"/>
</svg>
