<svg width="12" height="12" viewBox="0 0 12 12" fill="none" xmlns="http://www.w3.org/2000/svg">
<path fill-rule="evenodd" clip-rule="evenodd" d="M5.37913 0.257175C5.72202 -0.0857248 6.27797 -0.0857248 6.62087 0.257174L11.7428 5.37913C11.9075 5.54379 12 5.76713 12 6C12 6.23287 11.9075 6.45621 11.7428 6.62087L6.62087 11.7428C6.27797 12.0857 5.72202 12.0857 5.37913 11.7428C5.03623 11.3999 5.03623 10.844 5.37913 10.5011L9.00215 6.87805H0.878049C0.393116 6.87805 0 6.48493 0 6C0 5.51507 0.393116 5.12195 0.878049 5.12195H9.00215L5.37913 1.49892C5.03623 1.15602 5.03623 0.600074 5.37913 0.257175Z" fill="#008751"/>
</svg>
