<svg width="12" height="12" viewBox="0 0 12 12" fill="none" xmlns="http://www.w3.org/2000/svg">
<path fill-rule="evenodd" clip-rule="evenodd" d="M6.62087 11.7428C6.27798 12.0857 5.72203 12.0857 5.37913 11.7428L0.257174 6.62088C0.0925078 6.45621 -5.04178e-07 6.23287 -5.24537e-07 6C-5.44895e-07 5.76713 0.0925078 5.54379 0.257174 5.37913L5.37913 0.257175C5.72202 -0.0857252 6.27797 -0.0857253 6.62087 0.257175C6.96377 0.600074 6.96377 1.15602 6.62087 1.49892L2.99785 5.12195L11.122 5.12195C11.6069 5.12195 12 5.51507 12 6C12 6.48493 11.6069 6.87805 11.122 6.87805L2.99785 6.87805L6.62087 10.5011C6.96377 10.844 6.96377 11.3999 6.62087 11.7428Z" fill="#B0B0B0"/>
</svg>
