<svg width="17" height="22" viewBox="0 0 17 22" fill="none" xmlns="http://www.w3.org/2000/svg">
<path d="M9.60196 0.364805C9.36831 0.13122 9.05144 0 8.72105 0C8.39067 0 8.0738 0.13122 7.84015 0.364805L0.791638 7.41331C0.672634 7.52825 0.577713 7.66574 0.512412 7.81775C0.447112 7.96977 0.41274 8.13327 0.411302 8.29871C0.409864 8.46415 0.44139 8.62822 0.504039 8.78134C0.566688 8.93447 0.659206 9.07358 0.776194 9.19057C0.893183 9.30756 1.0323 9.40008 1.18542 9.46273C1.33855 9.52538 1.50262 9.5569 1.66806 9.55547C1.8335 9.55403 1.997 9.51966 2.14901 9.45436C2.30103 9.38906 2.43852 9.29413 2.55345 9.17513L7.47507 4.25351L7.47507 20.754C7.47507 21.0845 7.60635 21.4014 7.84001 21.6351C8.07368 21.8687 8.3906 22 8.72105 22C9.05151 22 9.36843 21.8687 9.6021 21.6351C9.83576 21.4014 9.96703 21.0845 9.96703 20.754L9.96703 4.25351L14.8887 9.17513C15.1237 9.40209 15.4384 9.52768 15.7651 9.52484C16.0918 9.522 16.4043 9.39097 16.6353 9.15995C16.8663 8.92894 16.9973 8.61643 17.0002 8.28974C17.003 7.96305 16.8774 7.64831 16.6505 7.41331L9.60196 0.364805Z" fill="white"/>
</svg>
